<svg xmlns="http://www.w3.org/2000/svg" width="1024" height="1024" viewBox="0 0 1024 1024">
<g>
<path d="M 489.50 759.37 C481.17,758.08 473.33,754.54 444.68,739.13 C427.53,729.90 404.27,717.49 393.00,711.53 C381.73,705.58 368.90,698.80 364.50,696.47 C356.86,692.42 329.33,678.09 290.50,657.95 C257.60,640.88 173.02,598.16 134.04,578.92 C112.89,568.48 94.72,559.16 93.65,558.22 C91.15,555.99 88.05,549.22 88.02,545.91 C88.00,542.94 100.22,502.40 102.39,498.24 C104.21,494.76 108.57,490.70 112.77,488.58 L 116.04 486.93 L 113.42 483.49 C108.75,477.36 108.58,473.70 112.09,455.65 C113.83,446.77 116.09,438.09 117.14,436.36 C121.37,429.34 127.83,426.03 169.65,409.44 C212.96,392.27 303.21,356.70 315.50,351.96 C321.00,349.84 334.27,344.69 345.00,340.50 C355.73,336.32 372.15,329.95 381.50,326.35 C390.85,322.75 424.60,309.66 456.50,297.26 C516.29,274.02 520.32,272.62 530.55,271.51 C542.77,270.18 551.05,272.25 586.50,285.47 C668.86,316.20 761.44,352.42 859.50,392.29 C911.62,413.48 925.92,419.54 928.65,421.58 C930.38,422.88 932.80,426.03 934.04,428.58 L 936.28 433.21 L 934.55 448.36 C932.21,468.80 931.35,472.39 927.59,477.31 L 924.37 481.54 L 926.67 486.52 C927.94,489.26 928.98,493.00 928.99,494.84 C929.01,500.64 923.05,524.23 920.44,528.69 C917.26,534.13 914.61,536.02 897.00,545.47 C829.88,581.48 764.65,617.73 668.50,672.45 C567.47,729.94 521.24,755.47 515.00,757.24 C508.42,759.10 495.01,760.22 489.50,759.37 ZM 511.36 749.43 C514.74,748.56 522.45,745.13 528.50,741.80 C548.60,730.74 611.40,695.31 674.00,659.71 C754.35,614.00 815.12,580.13 864.50,553.51 C882.65,543.73 900.30,534.20 903.73,532.33 C912.78,527.39 914.50,524.59 918.08,508.97 C921.17,495.52 921.21,492.58 918.38,488.21 L 916.90 485.92 L 901.20 494.12 C883.87,503.16 854.35,518.78 805.00,545.01 C765.58,565.96 630.08,637.52 580.63,663.51 C560.90,673.87 542.45,683.00 539.63,683.78 C532.10,685.87 516.80,685.78 509.50,683.60 C506.20,682.61 490.00,674.84 473.50,666.33 C457.00,657.82 429.10,643.62 411.50,634.79 C393.90,625.95 376.12,616.92 372.00,614.72 C350.00,602.97 127.68,492.00 126.14,492.00 C123.01,492.00 112.27,497.94 110.49,500.65 C107.68,504.95 95.89,544.71 96.60,547.53 C97.21,549.97 102.26,555.00 104.10,555.00 C105.36,555.00 234.02,619.36 275.04,640.50 C318.51,662.91 334.57,671.23 346.50,677.50 C389.40,700.04 400.03,705.65 419.00,715.78 C430.83,722.09 449.13,731.92 459.67,737.63 C470.22,743.33 481.24,748.65 484.17,749.44 C491.32,751.36 503.83,751.35 511.36,749.43 ZM 537.68 675.50 C543.49,673.78 568.20,660.85 789.00,544.01 C844.83,514.47 896.67,487.05 904.21,483.09 C917.65,476.02 922.49,472.15 923.48,467.67 C924.04,465.20 925.83,451.57 925.63,451.37 C925.32,451.06 724.46,551.76 670.00,579.53 C602.34,614.03 576.33,627.34 564.50,633.54 C549.19,641.57 543.16,643.31 531.00,643.23 C518.00,643.14 512.79,641.28 490.34,628.72 C454.83,608.85 369.68,565.99 259.00,512.29 C240.47,503.30 204.80,486.91 149.50,461.99 C135.75,455.79 123.96,450.29 123.29,449.77 C121.97,448.73 121.97,448.72 119.50,460.82 C117.67,469.73 117.59,475.07 119.25,477.30 C119.94,478.22 162.80,500.09 214.50,525.90 C306.96,572.05 447.46,643.23 486.29,663.59 C497.17,669.29 508.19,674.61 510.79,675.41 C517.05,677.34 531.33,677.39 537.68,675.50 ZM 543.56 633.63 C546.34,632.89 567.04,622.83 589.56,611.28 C659.43,575.44 706.71,551.50 817.50,495.89 C933.90,437.45 929.82,439.80 927.02,433.04 C925.16,428.55 923.60,427.62 906.50,420.68 C897.70,417.12 884.42,411.73 877.00,408.71 C834.01,391.21 821.86,386.31 786.00,371.97 C764.28,363.28 739.97,353.61 732.00,350.48 C724.03,347.35 710.08,341.87 701.00,338.31 C684.40,331.79 658.25,321.77 624.00,308.79 C550.11,280.81 547.63,280.00 535.95,280.00 C524.63,280.00 520.30,281.46 451.00,308.54 C443.58,311.45 417.70,321.49 393.50,330.86 C326.66,356.75 287.77,371.89 263.50,381.48 C133.63,432.77 134.57,432.38 127.75,437.19 C126.24,438.26 125.00,439.55 125.00,440.06 C125.00,441.26 136.70,447.10 159.79,457.43 C212.10,480.81 234.67,491.23 268.50,507.57 C333.59,539.03 465.70,605.40 490.50,619.11 C503.70,626.41 516.75,632.93 519.50,633.61 C526.26,635.26 537.40,635.27 543.56,633.63 ZM 137.95 521.75 C125.27,515.39 124.20,514.34 125.39,509.59 C125.97,507.28 129.70,505.00 132.91,505.00 C133.91,505.00 140.17,507.68 146.83,510.96 C159.68,517.28 161.54,519.26 159.02,523.95 C157.93,526.00 154.27,528.00 151.63,528.00 C150.95,528.00 144.79,525.19 137.95,521.75 ZM 154.42 523.39 C157.92,522.05 155.48,519.76 144.87,514.43 C136.94,510.46 133.05,509.02 131.37,509.44 C126.67,510.62 128.96,512.94 140.25,518.47 C152.37,524.40 152.07,524.29 154.42,523.39 ZM 492.19 657.37 C491.66,656.43 488.82,654.24 485.86,652.51 C482.91,650.78 480.50,648.72 480.50,647.93 C480.50,646.46 491.48,642.25 495.75,642.09 C498.34,641.99 498.37,642.17 496.91,648.99 C496.07,652.89 496.11,654.42 497.05,655.56 C498.46,657.26 498.32,657.50 495.32,658.42 C493.81,658.88 492.86,658.57 492.19,657.37 ZM 493.93 647.31 C494.00,645.14 493.95,645.14 489.36,646.70 L 484.72 648.28 L 488.60 650.62 C492.17,652.78 492.54,652.83 493.17,651.23 C493.55,650.28 493.89,648.51 493.93,647.31 ZM 465.74 644.09 C462.00,641.68 461.69,641.31 462.49,640.02 C462.96,639.25 464.25,639.54 466.65,640.95 C468.55,642.08 470.28,643.00 470.49,643.00 C470.69,643.00 471.36,640.56 471.98,637.58 C473.52,630.16 474.83,629.27 479.93,632.18 C482.16,633.46 483.99,635.06 483.99,635.75 C484.00,637.46 482.41,637.32 479.38,635.33 C476.40,633.38 475.57,634.16 474.49,639.94 C473.31,646.25 470.90,647.39 465.74,644.09 ZM 447.01 633.32 C447.01,632.87 447.48,630.81 448.05,628.75 C449.32,624.20 450.95,624.00 457.37,627.58 C461.64,629.97 462.05,630.03 462.68,628.40 C463.09,627.32 462.80,626.29 461.93,625.76 C461.14,625.28 458.14,623.56 455.25,621.93 C450.41,619.19 448.53,617.00 451.03,617.00 C451.59,617.00 454.76,618.36 458.06,620.03 C464.92,623.49 466.99,626.53 465.18,630.50 C463.75,633.63 462.32,633.64 456.85,630.51 C451.40,627.40 451.20,627.40 450.82,630.74 C450.63,632.39 449.81,633.61 448.75,633.81 C447.79,634.00 447.00,633.78 447.01,633.32 ZM 173.53 496.04 C173.20,495.51 173.44,494.26 174.07,493.26 C174.95,491.85 174.84,490.56 173.59,487.56 C171.80,483.29 171.93,482.65 174.36,483.58 C175.35,483.97 176.00,485.34 176.00,487.08 C176.00,489.21 176.38,489.79 177.50,489.36 C178.32,489.05 179.00,488.14 179.00,487.36 C179.00,486.22 179.42,486.16 181.11,487.06 C183.17,488.16 183.15,488.23 180.12,490.34 C178.24,491.66 177.03,493.38 177.02,494.75 C177.00,497.01 174.66,497.88 173.53,496.04 ZM 163.50 486.99 C161.64,481.41 160.92,481.12 160.78,485.90 C160.69,489.21 160.33,489.49 158.06,488.06 C156.90,487.33 156.87,486.86 157.88,485.64 C158.57,484.81 159.22,482.53 159.32,480.57 C159.57,475.57 161.64,476.07 164.24,481.75 L 166.41 486.50 L 166.77 483.25 C167.09,480.34 167.34,480.11 169.13,481.07 C170.51,481.81 170.83,482.50 170.15,483.32 C169.62,483.97 168.78,486.04 168.29,487.93 C166.98,493.03 165.40,492.72 163.50,486.99 ZM 147.07 482.37 C145.93,480.92 145.00,478.99 145.00,478.09 C145.00,475.31 147.98,472.00 150.48,472.00 C153.17,472.00 157.00,476.23 157.00,479.20 C157.00,485.22 150.86,487.18 147.07,482.37 ZM 153.50 479.10 C153.50,475.12 150.59,472.48 148.99,475.00 C146.79,478.45 148.70,483.40 151.98,482.77 C152.98,482.57 153.50,481.32 153.50,479.10 ZM 136.75 478.24 C135.24,477.30 134.00,475.66 134.00,474.59 C134.00,472.74 134.10,472.75 136.31,474.83 C138.47,476.85 141.00,477.72 141.00,476.44 C141.00,476.12 139.65,474.73 138.00,473.35 C134.75,470.61 134.07,467.29 136.56,466.34 C138.56,465.57 142.88,467.52 143.65,469.53 C144.62,472.06 143.32,472.32 141.05,470.05 C139.88,468.88 138.43,468.24 137.81,468.62 C137.10,469.05 137.67,470.01 139.36,471.25 C143.30,474.12 144.33,476.53 142.43,478.43 C140.49,480.37 140.16,480.36 136.75,478.24 ZM 522.32 450.12 C513.97,449.23 506.84,448.20 506.48,447.82 C506.11,447.45 507.09,446.49 508.66,445.69 C510.80,444.60 512.99,444.43 517.50,445.01 C520.80,445.44 526.15,446.03 529.39,446.34 C538.54,447.19 534.74,445.14 524.68,443.80 C519.91,443.16 516.00,442.28 516.00,441.85 C516.00,441.42 516.95,440.56 518.11,439.94 C522.30,437.70 536.61,441.30 542.00,445.96 C545.39,448.89 545.44,449.03 543.56,450.49 C541.33,452.22 542.28,452.24 522.32,450.12 ZM 497.02 444.87 C493.97,442.33 492.65,443.42 515.29,429.86 L 532.08 419.80 L 537.57 422.03 C543.44,424.41 549.00,428.89 549.00,431.23 C549.00,434.60 539.91,440.01 534.28,439.99 C530.62,439.97 527.00,438.97 527.00,437.97 C527.00,437.53 529.95,435.52 533.56,433.51 C537.16,431.49 539.94,429.31 539.73,428.67 C538.91,426.19 534.96,427.06 527.87,431.30 C508.77,442.71 501.25,447.00 500.41,446.97 C499.91,446.95 498.38,446.01 497.02,444.87 ZM 484.58 437.52 C477.74,434.71 475.48,432.80 476.33,430.58 C476.75,429.48 478.24,429.00 481.17,429.00 C487.98,429.00 507.00,431.33 507.00,432.17 C507.00,434.24 502.34,435.16 494.64,434.60 C489.32,434.21 487.19,434.33 488.50,434.93 C489.60,435.44 491.66,435.89 493.08,435.93 C496.35,436.02 497.29,436.94 495.87,438.66 C494.27,440.59 491.32,440.29 484.58,437.52 Z" fill="#0754d9"></path>
</g>
</svg>