<svg xmlns="http://www.w3.org/2000/svg" width="1024" height="1024" viewBox="0 0 1024 1024">
<g>
<path d="M 143.52 782.39 C105.19,773.92 81.57,745.38 72.75,696.87 C70.67,685.45 70.50,681.62 70.53,647.00 C70.56,607.28 71.35,595.58 76.59,557.50 C90.82,454.02 118.96,350.74 150.27,287.03 C157.66,272.00 159.03,269.90 165.93,262.95 C170.10,258.77 176.20,253.84 179.50,252.01 C182.80,250.17 185.64,248.57 185.81,248.44 C185.99,248.31 186.79,245.39 187.59,241.94 C190.56,229.22 197.52,219.81 207.81,214.60 C217.99,209.44 226.40,208.50 262.50,208.50 C292.10,208.50 296.05,208.69 300.84,210.36 C310.70,213.79 316.15,220.61 317.43,231.11 L 318.11 236.72 L 325.28 237.32 C334.83,238.12 344.87,243.01 351.49,250.09 C355.60,254.49 356.43,254.99 357.23,253.55 C359.47,249.55 364.70,244.67 369.41,242.19 L 374.50 239.50 L 509.95 239.24 C664.16,238.94 652.28,238.30 661.44,247.30 C664.36,250.16 666.96,253.18 667.22,254.00 C667.56,255.07 669.06,253.99 672.43,250.27 C678.89,243.12 688.85,238.23 699.00,237.24 L 706.50 236.50 L 707.09 230.38 C708.04,220.37 713.35,213.78 723.22,210.34 C727.94,208.69 732.05,208.50 762.00,208.50 C791.06,208.50 796.56,208.75 803.50,210.35 C822.18,214.68 832.00,224.13 836.53,242.17 C838.10,248.44 838.23,248.61 843.82,251.50 C847.11,253.21 852.89,257.82 857.56,262.47 C865.09,269.97 866.16,271.59 873.73,287.01 C908.86,358.45 937.66,470.38 951.20,588.00 C953.15,604.93 953.45,612.65 953.47,646.50 C953.50,689.85 952.71,697.37 945.87,718.78 C932.06,761.98 900.88,785.22 858.70,783.79 C845.10,783.32 838.52,781.52 830.59,776.06 C819.04,768.12 812.58,758.39 791.45,717.14 C757.64,651.15 748.61,634.15 742.50,624.95 C731.79,608.82 723.21,602.67 711.42,602.64 C706.12,602.63 704.02,603.28 694.92,607.75 C675.38,617.35 660.79,620.60 641.50,619.64 C624.80,618.81 613.18,615.65 597.12,607.56 C593.31,605.64 587.34,603.61 583.85,603.05 C579.95,602.41 552.08,602.02 511.50,602.02 C437.76,602.04 437.87,602.03 424.39,608.80 C405.24,618.42 384.53,621.86 363.45,618.93 C352.62,617.42 344.32,614.73 330.59,608.25 C320.07,603.28 317.98,602.64 312.59,602.69 C298.11,602.83 288.28,612.05 272.31,640.50 C269.53,645.45 258.58,666.60 247.97,687.50 C228.31,726.23 216.72,748.28 212.23,755.48 C204.24,768.28 194.16,777.25 183.22,781.28 C175.62,784.09 153.94,784.69 143.52,782.39 ZM 172.00 775.95 C185.40,773.81 195.36,766.76 204.45,753.00 C209.12,745.93 213.77,737.11 243.49,679.00 C274.60,618.15 283.07,605.53 297.52,598.44 C302.79,595.85 304.57,595.50 312.50,595.50 C321.27,595.50 321.79,595.64 332.50,600.69 C352.62,610.19 363.68,612.62 382.75,611.73 C397.23,611.05 407.06,608.57 421.00,602.05 C426.77,599.35 433.30,596.66 435.50,596.08 C438.16,595.37 463.87,595.01 512.00,595.02 C592.85,595.02 587.92,594.63 604.00,602.33 C619.68,609.83 627.58,611.50 647.00,611.42 C661.91,611.36 664.34,611.09 672.23,608.68 C677.04,607.22 685.80,603.65 691.71,600.76 C702.25,595.60 702.61,595.50 711.47,595.50 C719.43,595.50 721.21,595.85 726.50,598.44 C729.81,600.05 735.04,603.91 738.16,607.02 C748.59,617.42 754.76,628.18 791.74,700.50 C817.52,750.90 819.52,754.37 827.74,763.10 C838.20,774.20 851.22,778.26 869.50,776.10 C912.46,771.04 936.75,742.58 944.66,688.10 C946.72,673.89 946.94,633.47 945.10,609.50 C937.00,504.39 904.93,370.98 870.09,297.50 C860.87,278.05 859.30,275.40 853.12,268.79 C842.77,257.73 828.46,251.22 805.00,246.92 C794.78,245.04 788.58,244.75 749.28,244.29 C694.24,243.66 690.46,244.17 679.88,253.73 C672.37,260.51 671.47,263.57 668.03,294.10 C658.59,377.75 656.41,393.65 653.60,399.39 C650.11,406.53 641.70,414.22 634.42,416.95 C628.86,419.02 628.35,419.03 510.67,418.77 L 392.50 418.50 L 387.73 416.30 C381.62,413.48 373.07,404.88 370.15,398.62 C367.80,393.59 365.74,378.21 356.53,296.94 C354.67,280.49 352.51,265.76 351.67,263.75 C349.54,258.65 342.41,251.24 337.00,248.50 C329.19,244.54 322.72,244.00 283.57,244.00 C244.17,244.01 229.57,244.88 213.51,248.17 C182.75,254.48 170.49,263.66 157.32,290.22 C126.12,353.17 97.99,458.00 83.60,565.00 C77.74,608.57 75.89,661.68 79.35,687.00 C85.89,734.82 105.17,762.79 138.60,772.95 C150.57,776.58 161.73,777.59 172.00,775.95 ZM 631.37 410.03 C636.71,408.04 644.35,400.91 646.87,395.55 C648.08,392.99 649.42,387.12 650.02,381.79 C650.59,376.68 653.53,351.45 656.55,325.73 C664.10,261.28 663.86,265.28 660.54,258.50 C658.68,254.69 656.50,252.04 653.72,250.20 L 649.65 247.50 L 514.07 247.22 C362.68,246.91 373.47,246.42 366.62,254.00 C360.72,260.53 360.49,263.14 363.46,288.89 C364.89,301.33 367.18,321.17 368.55,333.00 C369.92,344.83 371.96,362.60 373.09,372.50 C374.45,384.42 375.81,392.02 377.12,395.00 C380.63,402.96 387.81,408.79 396.73,410.92 C398.87,411.43 449.72,411.74 514.00,411.64 C609.84,411.49 628.10,411.24 631.37,410.03 ZM 202.00 242.92 C216.64,238.29 232.02,236.84 272.37,236.28 L 310.23 235.74 L 309.73 231.26 C308.80,223.03 303.64,218.43 293.55,216.86 C282.67,215.17 228.21,216.33 220.01,218.43 C207.97,221.51 200.83,227.51 196.98,237.79 C195.17,242.61 194.59,245.02 195.25,244.99 C195.39,244.98 198.43,244.05 202.00,242.92 ZM 826.72 236.70 C821.40,225.08 813.42,219.76 797.79,217.41 C787.57,215.87 737.20,215.51 728.69,216.91 C720.55,218.25 715.13,223.69 714.26,231.39 L 713.74 236.00 L 743.12 236.03 C784.36,236.07 806.07,237.94 822.51,242.85 C829.77,245.03 830.22,244.36 826.72,236.70 ZM 363.49 589.61 C340.35,585.18 320.51,568.73 311.66,546.64 C304.49,528.71 305.74,507.33 315.07,488.87 C323.58,472.01 342.41,457.72 361.80,453.40 C371.22,451.31 387.61,451.97 396.61,454.80 C414.27,460.37 429.23,473.13 437.87,490.00 C443.62,501.23 445.39,508.63 445.42,521.50 C445.47,540.94 439.21,555.85 425.05,570.10 C411.96,583.26 397.96,589.53 379.50,590.49 C374.10,590.77 367.70,590.42 363.49,589.61 ZM 390.00 581.44 C410.60,576.60 427.54,561.07 434.63,540.50 C437.02,533.58 437.40,530.95 437.40,521.00 C437.41,511.09 437.04,508.48 434.77,502.17 C427.99,483.26 415.25,470.25 396.44,463.00 C387.33,459.49 369.71,458.99 359.83,461.96 C344.96,466.43 333.67,474.73 325.15,487.46 C318.54,497.35 315.94,505.20 315.27,517.24 C314.41,532.89 317.16,543.12 325.80,556.34 C338.96,576.47 366.06,587.07 390.00,581.44 ZM 635.50 589.57 C620.36,586.58 610.27,581.25 599.40,570.50 C585.35,556.61 578.83,541.35 578.71,522.00 C578.53,493.98 594.77,468.98 620.50,457.67 C648.43,445.38 682.55,453.84 701.54,477.76 C721.31,502.64 722.11,536.48 703.55,562.49 C688.74,583.23 660.44,594.50 635.50,589.57 ZM 662.23 581.07 C682.87,575.79 698.77,561.42 705.81,541.68 C709.17,532.27 709.98,516.45 707.60,506.93 C702.42,486.21 686.18,468.93 665.83,462.51 C656.47,459.55 641.98,459.10 633.00,461.49 C618.28,465.40 602.62,476.99 595.39,489.32 C589.05,500.14 586.65,508.97 586.65,521.50 C586.65,530.84 587.06,533.68 589.35,540.33 C600.03,571.39 631.43,588.95 662.23,581.07 ZM 487.38 551.56 C485.66,550.82 483.52,549.16 482.63,547.88 C480.55,544.91 480.51,537.14 482.56,534.22 C485.91,529.44 488.37,529.00 512.00,529.00 C535.63,529.00 538.09,529.44 541.44,534.22 C542.30,535.44 543.00,538.49 543.00,541.00 C543.00,546.17 541.19,549.33 536.99,551.51 C533.00,553.57 492.10,553.62 487.38,551.56 ZM 535.39 542.75 C536.19,541.47 536.19,540.53 535.39,539.25 C534.40,537.68 531.98,537.47 512.52,537.23 C490.14,536.95 488.00,537.27 488.00,540.92 C488.00,544.78 489.66,545.05 512.36,544.77 C531.98,544.53 534.40,544.32 535.39,542.75 ZM 483.56 479.78 C481.50,476.84 481.59,475.41 484.00,473.00 C487.75,469.25 494.00,471.60 494.00,476.76 C494.00,481.82 486.51,483.99 483.56,479.78 ZM 507.38 479.46 C506.06,477.44 505.94,476.42 506.82,474.49 C509.00,469.70 516.32,470.44 517.61,475.57 C519.05,481.30 510.68,484.49 507.38,479.46 ZM 531.54 480.04 C527.96,476.09 532.22,470.08 537.63,471.44 C538.97,471.78 540.57,473.15 541.18,474.49 C543.74,480.11 535.76,484.71 531.54,480.04 ZM 766.36 479.92 C759.67,477.35 753.18,471.56 749.47,464.86 C746.76,459.97 746.50,458.66 746.50,450.00 C746.50,438.89 748.62,433.33 755.47,426.47 C762.11,419.84 767.98,417.50 778.00,417.50 C788.01,417.50 793.38,419.63 800.30,426.36 C809.52,435.32 812.54,449.20 807.93,461.47 C801.83,477.72 782.70,486.20 766.36,479.92 ZM 788.64 471.93 C800.98,465.96 805.99,450.64 799.65,438.24 C795.04,429.22 786.36,424.44 775.97,425.20 C760.74,426.30 749.79,441.99 754.29,456.26 C756.36,462.83 762.02,469.65 767.44,472.11 C773.15,474.70 783.09,474.62 788.64,471.93 ZM 226.13 470.87 C219.44,467.51 218.05,463.53 218.02,447.69 C217.99,429.06 218.60,427.36 229.24,416.36 C240.94,404.26 246.67,401.71 253.81,405.40 C257.95,407.54 274.82,425.46 275.71,428.66 C276.14,430.22 276.50,438.55 276.50,447.18 C276.50,461.45 276.32,463.10 274.44,465.61 C269.52,472.21 268.56,472.47 248.68,472.78 C231.64,473.05 230.23,472.93 226.13,470.87 ZM 266.96 462.81 C268.81,460.83 269.00,459.33 269.00,446.76 C269.00,436.80 268.60,432.14 267.59,430.20 C266.82,428.72 262.60,424.01 258.21,419.75 C252.21,413.92 249.55,412.00 247.50,412.00 C245.45,412.00 242.79,413.92 236.79,419.75 C232.40,424.01 228.18,428.72 227.41,430.20 C226.39,432.15 226.00,436.83 226.00,446.95 C226.00,466.05 224.75,465.00 247.46,465.00 C264.14,465.00 265.01,464.90 266.96,462.81 ZM 470.65 458.17 C467.75,454.96 468.62,451.29 472.82,449.08 C477.61,446.55 482.63,452.86 479.56,457.55 C477.61,460.53 473.07,460.84 470.65,458.17 ZM 495.00 458.00 C493.90,456.90 493.00,455.30 493.00,454.45 C493.00,452.57 497.41,448.00 499.23,448.00 C502.01,448.00 505.00,451.11 505.00,453.99 C505.00,459.60 499.00,462.00 495.00,458.00 ZM 520.57 458.08 C518.24,455.50 518.91,452.14 522.25,449.66 L 525.00 447.61 L 527.75 449.66 C531.15,452.19 531.64,454.37 529.56,457.55 C527.58,460.57 523.06,460.83 520.57,458.08 ZM 545.57 458.67 C543.01,456.80 543.24,452.04 545.99,449.81 C548.72,447.60 549.91,447.55 552.78,449.56 C557.02,452.53 554.57,460.00 549.36,460.00 C548.27,460.00 546.57,459.40 545.57,458.67 ZM 706.33 419.21 C693.03,414.46 684.78,402.69 684.78,388.48 C684.78,375.21 692.05,364.04 704.35,358.43 C709.56,356.05 711.10,355.81 718.35,356.21 C728.27,356.76 734.55,359.62 740.87,366.47 C755.92,382.80 750.46,409.26 730.18,418.25 C723.61,421.16 713.00,421.59 706.33,419.21 ZM 726.35 411.63 C731.07,409.66 736.77,404.35 739.28,399.59 C742.13,394.20 742.30,383.12 739.61,378.00 C731.13,361.82 711.97,358.46 699.81,371.03 C695.23,375.75 692.00,382.99 692.00,388.50 C692.00,392.75 695.01,400.58 698.07,404.28 C704.46,412.01 717.40,415.37 726.35,411.63 ZM 830.95 419.70 C817.20,415.81 808.03,403.65 808.01,389.29 C807.98,371.00 820.21,357.33 837.58,356.21 C848.60,355.51 854.95,357.85 862.59,365.44 C869.87,372.69 872.41,378.90 872.27,389.17 C872.11,401.56 864.54,413.24 853.52,418.10 C847.48,420.77 837.28,421.49 830.95,419.70 ZM 849.34 411.50 C854.31,409.42 859.71,404.45 862.28,399.59 C865.13,394.20 865.30,383.12 862.61,378.00 C854.15,361.86 835.39,358.52 822.97,370.94 C818.25,375.65 815.00,382.82 815.00,388.50 C815.00,392.79 818.02,400.60 821.15,404.38 C827.41,411.95 840.41,415.23 849.34,411.50 ZM 171.97 418.18 C168.77,416.76 166.02,414.26 164.54,411.43 C163.34,409.12 163.01,404.71 163.01,390.65 C163.00,362.76 163.71,362.00 189.91,362.00 C210.83,362.00 211.17,362.13 223.33,375.05 C232.28,384.56 233.97,387.99 232.54,393.71 C231.78,396.74 214.03,415.38 209.80,417.59 C207.77,418.65 202.93,418.98 190.30,418.93 C181.06,418.89 172.81,418.55 171.97,418.18 ZM 205.33 411.14 C206.34,410.74 211.18,406.42 216.08,401.53 C222.43,395.20 225.00,391.94 225.00,390.21 C225.00,387.51 211.56,372.89 206.80,370.41 C204.84,369.39 200.10,369.00 189.55,369.00 C169.89,369.00 171.00,367.73 171.02,390.25 C171.02,399.74 171.36,407.99 171.77,408.59 C173.61,411.32 177.02,411.94 190.00,411.90 C197.43,411.88 204.32,411.53 205.33,411.14 ZM 286.00 417.92 C284.62,417.37 279.10,412.54 273.72,407.21 C263.46,397.01 261.22,393.00 262.63,387.29 C263.45,383.97 277.45,368.66 283.23,364.75 C287.29,362.01 287.36,362.00 304.78,362.00 C331.21,362.00 332.00,362.81 332.00,389.93 C332.00,408.53 331.37,411.55 326.55,416.00 C323.90,418.45 323.49,418.50 306.17,418.72 C295.99,418.84 287.44,418.51 286.00,417.92 ZM 321.37 409.93 L 324.00 407.85 L 324.00 390.50 L 324.00 373.15 L 321.37 371.07 C318.99,369.20 317.38,369.00 304.82,369.00 C294.81,369.00 290.14,369.39 288.20,370.41 C283.51,372.85 270.00,387.50 270.00,390.15 C270.00,391.84 272.72,395.22 279.25,401.66 C284.34,406.67 289.17,411.01 290.00,411.31 C290.83,411.60 297.63,411.88 305.12,411.92 C317.44,411.99 318.98,411.80 321.37,409.93 ZM 231.02 365.38 C218.18,352.49 218.01,352.07 218.01,333.07 C218.00,317.70 219.45,312.97 225.23,309.48 C228.18,307.69 230.34,307.50 247.50,307.50 C264.35,307.50 266.85,307.71 269.61,309.39 C275.48,312.94 276.46,315.95 276.84,331.56 C277.32,351.45 277.03,352.24 264.51,364.93 L 254.21 375.36 L 248.03 375.80 L 241.85 376.25 L 231.02 365.38 ZM 259.91 358.54 L 269.00 349.27 L 269.00 334.77 C269.00,321.61 268.81,320.03 266.93,317.63 L 264.85 315.00 L 247.50 315.00 L 230.15 315.00 L 228.00 317.72 C226.00,320.27 225.88,321.37 226.18,335.20 L 226.50 349.96 L 235.00 358.57 C243.68,367.36 246.13,369.04 249.12,368.26 C250.05,368.02 254.90,363.64 259.91,358.54 ZM 766.36 355.98 C759.63,353.31 753.16,347.52 749.47,340.86 C746.73,335.92 746.50,334.72 746.50,325.50 C746.50,313.96 748.08,309.87 755.34,302.60 C762.13,295.82 767.93,293.50 778.00,293.52 C788.02,293.55 793.97,295.92 800.55,302.50 C809.49,311.43 812.48,325.37 808.01,337.26 C805.37,344.29 798.53,351.61 791.50,354.94 C784.43,358.29 773.34,358.75 766.36,355.98 ZM 789.12 347.21 C806.32,338.22 807.14,314.78 790.61,304.56 C777.16,296.25 758.99,303.20 754.48,318.39 C752.60,324.70 752.62,327.53 754.55,333.21 C759.52,347.78 775.57,354.28 789.12,347.21 ZM 364.00 561.12 C353.48,557.74 346.62,552.58 340.91,543.74 C324.64,518.56 339.90,485.15 370.10,479.83 C387.58,476.75 406.31,486.88 414.29,503.73 C417.31,510.09 417.50,511.17 417.47,521.50 C417.45,531.27 417.15,533.14 414.79,538.22 C411.86,544.53 404.51,553.00 398.83,556.60 C389.06,562.79 374.91,564.63 364.00,561.12 ZM 390.89 552.09 C397.90,548.46 404.43,541.67 407.50,534.81 C409.73,529.86 410.28,527.15 410.32,520.92 C410.36,514.17 409.95,512.35 407.15,506.65 C403.57,499.39 397.67,493.54 390.22,489.86 C386.35,487.96 383.87,487.54 376.50,487.52 C368.67,487.50 366.77,487.86 361.88,490.26 C355.18,493.55 347.67,501.25 344.77,507.78 C343.56,510.51 342.49,515.45 342.24,519.50 C341.32,534.29 349.79,547.17 364.50,553.34 C370.47,555.84 384.99,555.15 390.89,552.09 ZM 634.67 560.98 C626.68,558.16 622.32,555.22 616.28,548.62 C608.73,540.36 606.50,534.06 606.50,521.00 C606.50,511.14 606.70,510.08 609.81,503.74 C616.08,490.91 627.21,482.48 641.33,479.88 C653.67,477.61 666.65,481.77 676.61,491.20 C697.80,511.23 692.53,545.73 666.31,558.69 C659.55,562.03 657.83,562.45 649.64,562.73 C642.38,562.98 639.30,562.62 634.67,560.98 ZM 660.68 552.85 C667.60,550.26 675.41,542.88 679.04,535.50 C681.10,531.31 681.50,529.04 681.50,521.50 C681.50,513.85 681.10,511.65 678.85,506.84 C675.58,499.87 669.60,493.93 662.16,490.28 C657.32,487.90 655.27,487.50 648.00,487.50 C640.91,487.50 638.57,487.94 633.88,490.14 C611.04,500.84 606.62,529.79 625.26,546.55 C634.57,554.91 648.53,557.39 660.68,552.85 Z" fill="#0754d9"></path>
</g>
</svg>